HIERARCHY
ROOT Hips
{
	OFFSET 0.000000 0.000000 0.000000
	CHANNELS 6 Xposition Yposition Zposition Zrotation Xrotation Yrotation
	JOINT RightUpLeg
	{
		OFFSET -10.032200 0.000000 0.000000
		CHANNELS 3 Zrotation Xrotation Yrotation
		JOINT RightLeg
		{
			OFFSET 0.000000 -40.977000 0.000000
			CHANNELS 3 Zrotation Xrotation Yrotation
			JOINT RightFoot
			{
				OFFSET 0.000000 -38.933200 0.000000
				CHANNELS 3 Zrotation Xrotation Yrotation
				JOINT RightToe
				{
					OFFSET 0.000000 -1.977400 9.184000
					CHANNELS 3 Zrotation Xrotation Yrotation
					JOINT RightToeEnd
					{
						OFFSET 0.000000 2.335600 6.099100
						CHANNELS 3 Zrotation Xrotation Yrotation
						End Site
						{
						    OFFSET 0.000000 1.788000 4.669400
						}
					}
				}
			}
		}
	}
	JOINT LeftUpLeg
	{
		OFFSET 10.032200 0.000000 0.000000
		CHANNELS 3 Zrotation Xrotation Yrotation
		JOINT LeftLeg
		{
			OFFSET 0.000000 -40.977000 0.000000
			CHANNELS 3 Zrotation Xrotation Yrotation
			JOINT LeftFoot
			{
				OFFSET 0.000000 -38.933200 0.000000
				CHANNELS 3 Zrotation Xrotation Yrotation
				JOINT LeftToe
				{
					OFFSET 0.000000 -1.977400 9.184000
					CHANNELS 3 Zrotation Xrotation Yrotation
					JOINT LeftToeEnd
					{
						OFFSET 0.000000 2.335600 6.099100
						CHANNELS 3 Zrotation Xrotation Yrotation
						End Site
						{
						    OFFSET 0.000000 1.788000 4.669400
						}
					}
				}
			}
		}
	}
	JOINT Spine
	{
		OFFSET 0.000000 16.960900 0.000000
		CHANNELS 3 Zrotation Xrotation Yrotation
		JOINT Spine1
		{
			OFFSET 0.000000 13.413900 0.000000
			CHANNELS 3 Zrotation Xrotation Yrotation
			JOINT Spine2
			{
				OFFSET 0.000000 10.384400 0.000000
				CHANNELS 3 Zrotation Xrotation Yrotation
				JOINT LeftShoulder
				{
					OFFSET 2.000000 10.384400 0.000000
					CHANNELS 3 Zrotation Xrotation Yrotation
					JOINT LeftArm
					{
						OFFSET 15.649100 0.000000 0.000000
						CHANNELS 3 Zrotation Xrotation Yrotation
						JOINT LeftForeArm
						{
							OFFSET 0.000000 -26.641600 0.000000
							CHANNELS 3 Zrotation Xrotation Yrotation
							JOINT LeftHand
							{
								OFFSET 0.000000 -23.740600 0.000000
								CHANNELS 3 Zrotation Xrotation Yrotation
								JOINT LeftFinger0
								{
									OFFSET 0.000000 -7.620900 0.000000
									CHANNELS 3 Zrotation Xrotation Yrotation
									End Site
									{
									    OFFSET 0.000000 -5.000000 0.000000
									}
								}
							}
						}
					}
				}
				JOINT RightShoulder
				{
					OFFSET -2.000000 10.384400 0.000000
					CHANNELS 3 Zrotation Xrotation Yrotation
					JOINT RightArm
					{
						OFFSET -15.649100 0.000000 0.000000
						CHANNELS 3 Zrotation Xrotation Yrotation
						JOINT RightForeArm
						{
							OFFSET 0.000000 -26.641600 0.000000
							CHANNELS 3 Zrotation Xrotation Yrotation
							JOINT RightHand
							{
								OFFSET 0.000000 -23.740600 0.000000
								CHANNELS 3 Zrotation Xrotation Yrotation
								JOINT RightFinger0
								{
									OFFSET 0.000000 -7.620900 0.000000
									CHANNELS 3 Zrotation Xrotation Yrotation
									End Site
									{
									    OFFSET 0.000000 -5.000000 0.000000
									}
								}
							}
						}
					}
				}
				JOINT Neck
				{
					OFFSET 0.000000 10.384400 0.000000
					CHANNELS 3 Zrotation Xrotation Yrotation
					JOINT Head
					{
						OFFSET 0.000000 10.146900 0.000000
						CHANNELS 3 Zrotation Xrotation Yrotation
						JOINT HeadTip
						{
							OFFSET 0.000000 10.000000 0.000000
							CHANNELS 3 Zrotation Xrotation Yrotation
							End Site
							{
							    OFFSET 0.000000 5.000000 0.000000
							}
						}
					}
				}
			}
		}
	}
}
MOTION
Frames:	9
Frame Time:	0.033332
58.430900 86.682100 -44.145500 -0.755715 -0.054567 -5.961702 -3.007748 -2.516324 -28.236289 -0.000000 7.451712 -0.000000 4.582092 14.360829 -4.408186 0.000000 -0.608761 -0.000000 -0.000000 0.000000 -0.000000 2.077775 -3.765906 26.503629 -0.000000 8.107050 0.000000 -0.638247 15.521136 -3.634621 0.000000 -2.175762 -0.000000 0.000000 0.000000 -0.000000 1.690294 -0.559775 2.469245 0.000000 1.070201 -0.000000 0.000000 0.000000 -0.000000 3.105014 -0.000000 4.594237 90.470162 -7.962703 14.883473 0.000000 -10.791021 -0.000000 0.222017 11.850278 -16.020260 0.000000 0.000000 -0.000000 -7.615226 -0.000000 -3.327751 -90.696546 -11.416757 -19.823459 -0.000007 -2.775373 -0.000000 -0.985114 20.837631 17.219549 -0.000000 0.000000 -0.000000 0.000000 0.000000 -0.000000 -3.618522 3.566901 2.995096 -0.000000 0.000000 -0.000000 
58.447800 86.684900 -44.179100 -0.751971 -0.042971 -5.920877 -3.022379 -2.548492 -28.268235 -0.000000 7.455356 -0.000000 4.581553 14.379092 -4.428398 -0.000000 -0.538784 0.000000 -0.000000 0.000000 -0.000000 2.065682 -3.812360 26.457430 0.000000 8.117318 -0.000000 -0.589514 15.517947 -3.626069 -0.000000 -2.136417 -0.000000 -0.000000 -0.000000 -0.000000 1.687880 -0.513000 2.494773 -0.000000 1.080549 -0.000000 0.000000 0.000000 0.000000 3.062586 -0.000000 4.624820 90.317021 -7.918858 14.933386 -0.000000 -10.697535 -0.000000 0.116179 11.738941 -15.719423 -0.000000 0.000000 0.000000 -7.565089 0.000000 -3.324258 -90.606881 -11.373378 -19.812966 -0.000007 -2.598598 -0.000000 -0.871676 20.844298 17.304900 0.000000 0.000000 0.000000 0.000000 0.000000 0.000000 -3.614990 3.549630 2.877730 -0.000000 0.000000 0.000000 
58.464700 86.686900 -44.210300 -0.750545 -0.029902 -5.893130 -3.033063 -2.579085 -28.310636 -0.000000 7.450447 -0.000000 4.580688 14.403246 -4.425903 -0.000000 -0.505229 -0.000000 -0.000000 0.000000 -0.000000 2.054640 -3.845044 26.469359 -0.000000 8.095874 -0.000000 -0.601398 15.579141 -3.680016 -0.000000 -2.173996 -0.000000 -0.000000 -0.000000 -0.000000 1.688063 -0.458133 2.523004 -0.000000 1.082134 -0.000000 -0.000000 -0.000000 0.000000 2.967204 -0.000000 4.664537 90.192003 -7.807422 15.020245 -0.000000 -10.709541 0.000000 -0.037176 11.594547 -15.252430 -0.000000 -0.000000 0.000000 -7.462131 -0.000000 -3.333086 -90.594811 -11.315789 -20.002732 -0.000007 -2.473075 -0.000000 -0.882507 20.882130 17.413989 0.000000 0.000000 -0.000000 -0.000000 -0.000000 0.000000 -3.610608 3.520963 2.757146 -0.000000 0.000000 -0.000000 
58.481400 86.687200 -44.240800 -0.747932 -0.011005 -5.868850 -3.047541 -2.620476 -28.346077 -0.000000 7.461065 -0.000000 4.565866 14.429463 -4.397566 0.000000 -0.555939 -0.000000 -0.000000 0.000000 -0.000000 2.048116 -3.891825 26.456071 0.000000 8.106575 -0.000000 -0.590646 15.580976 -3.685901 -0.000000 -2.142387 -0.000000 -0.000000 0.000000 -0.000000 1.681850 -0.399025 2.537405 -0.000000 1.073042 0.000000 -0.000000 0.000000 -0.000000 2.774139 -0.000000 4.770759 90.141672 -7.717367 15.088332 -0.000000 -10.782830 0.000000 -0.185402 11.228523 -15.095456 0.000000 -0.000000 0.000000 -7.331378 0.000000 -3.386270 -90.586036 -11.263332 -20.359301 -0.000007 -2.485818 -0.000000 -1.169139 20.944119 17.580792 0.000000 0.000000 -0.000000 -0.000000 0.000000 -0.000000 -3.495844 3.473732 2.580434 0.000000 0.000000 -0.000000 
58.490600 86.687100 -44.264800 -0.745403 0.000385 -5.837302 -3.058286 -2.650459 -28.358369 0.000000 7.475901 -0.000000 4.596880 14.429288 -4.421319 0.000000 -0.542537 -0.000000 0.000000 0.000000 0.000000 2.041491 -3.919441 26.447999 -0.000000 8.095443 0.000000 -0.625467 15.611379 -3.712267 -0.000000 -2.115674 0.000000 0.000000 0.000000 0.000000 1.637423 -0.363484 2.556180 -0.000000 1.087230 -0.000000 0.000000 0.000000 -0.000000 2.650645 0.000000 4.819660 89.977585 -7.565923 15.054145 -0.000000 -10.912490 -0.000000 -0.090195 10.969927 -14.832515 -0.000000 0.000000 -0.000000 -7.156197 -0.000000 -3.422890 -90.566642 -11.125233 -20.474139 -0.000007 -2.572784 -0.000000 -1.313875 20.866983 17.580208 0.000000 0.000000 -0.000000 0.000000 0.000000 -0.000000 -3.209740 3.474302 2.290880 0.000000 0.000000 -0.000000 
58.494300 86.686800 -44.282700 -0.753317 -0.012089 -5.798103 -3.055723 -2.655179 -28.411792 -0.000000 7.500701 -0.000000 4.530905 14.431549 -4.422500 -0.000000 -0.564494 -0.000000 -0.000000 0.000000 -0.000000 2.043106 -3.928682 26.418632 -0.000000 8.099055 0.000000 -0.571484 15.624447 -3.725932 -0.000000 -2.160588 -0.000000 -0.000000 0.000000 0.000000 1.582390 -0.321874 2.556977 -0.000000 1.109584 -0.000000 -0.000000 0.000000 0.000000 2.609170 0.000000 4.864045 89.726796 -7.482888 14.925323 0.000000 -10.814212 -0.000000 -0.280188 10.643188 -14.684521 0.000000 -0.000000 0.000000 -7.049735 -0.000000 -3.470000 -90.475950 -11.097061 -20.429264 -0.000007 -2.470583 -0.000000 -1.269531 20.862757 17.666769 -0.000000 -0.000000 -0.000000 -0.000000 0.000000 0.000000 -2.810965 3.547513 1.925668 0.000000 0.000000 -0.000000 
58.494600 86.685700 -44.297800 -0.759378 -0.026995 -5.771766 -3.066996 -2.671187 -28.419070 0.000000 7.557201 -0.000000 4.568880 14.418723 -4.447734 -0.000000 -0.546559 -0.000000 0.000000 0.000000 -0.000000 2.046684 -3.922608 26.392451 -0.000000 8.090932 -0.000000 -0.569785 15.626904 -3.720637 -0.000000 -2.154289 0.000000 -0.000000 0.000000 0.000000 1.514927 -0.299327 2.555653 -0.000000 1.128842 0.000000 -0.000000 0.000000 0.000000 2.614500 -0.000000 4.889641 89.444147 -7.452462 14.858323 -0.000000 -10.553742 -0.000000 -0.497220 10.646252 -14.562999 0.000000 -0.000000 -0.000000 -6.983052 -0.000000 -3.479082 -90.348235 -11.088895 -20.371673 -0.000006 -2.263304 -0.000000 -1.065385 20.907405 17.447526 0.000000 0.000000 -0.000000 -0.000000 0.000000 0.000000 -2.340003 3.681695 1.617133 -0.000000 0.000000 -0.000000 
58.489600 86.686200 -44.309300 -0.773910 -0.034968 -5.781821 -3.053980 -2.677864 -28.405735 -0.000000 7.571072 -0.000000 4.569736 14.440543 -4.448338 0.000000 -0.561249 0.000000 -0.000000 0.000000 0.000000 2.074680 -3.935149 26.416725 0.000000 8.126654 -0.000000 -0.600476 15.622535 -3.734807 -0.000000 -2.150247 -0.000000 -0.000000 0.000000 -0.000000 1.458198 -0.301430 2.572445 0.000000 1.145637 -0.000000 -0.000000 0.000000 -0.000000 2.620608 0.000000 4.902921 89.198929 -7.411031 14.685301 0.000000 -10.267906 -0.000000 -0.932367 10.620386 -14.579290 0.000000 -0.000000 -0.000000 -6.948461 -0.000000 -3.484726 -90.220953 -11.139934 -20.470598 -0.000005 -1.984828 -0.000000 -0.685432 21.025914 17.176547 0.000000 0.000000 -0.000000 -0.000000 0.000000 -0.000000 -1.949865 3.876280 1.332350 -0.000000 0.000000 -0.000000 
58.488400 86.687800 -44.317900 -0.779255 -0.044179 -5.813624 -3.049402 -2.678675 -28.408266 -0.000000 7.570530 -0.000000 4.575152 14.456855 -4.423928 0.000000 -0.550645 -0.000000 -0.000000 -0.000000 -0.000000 2.080074 -3.928970 26.419951 -0.000000 8.129783 0.000000 -0.579465 15.616220 -3.702857 -0.000000 -2.141066 0.000000 -0.000000 -0.000000 0.000000 1.399408 -0.302976 2.590096 0.000000 1.148923 0.000000 -0.000000 0.000000 -0.000000 2.611601 -0.000000 4.918889 88.973571 -7.343687 14.624142 0.000000 -10.072387 -0.000000 -0.968416 10.641063 -14.557709 0.000000 0.000000 -0.000000 -6.921385 -0.000000 -3.481429 -90.115421 -11.197177 -20.561113 -0.000005 -1.776865 -0.000000 -0.506329 21.088608 17.061628 0.000000 0.000000 -0.000000 -0.000000 0.000000 -0.000000 -1.663680 4.073832 1.094378 0.000000 0.000000 -0.000000 
